<mxfile host="Electron" modified="2023-10-30T10:38:20.160Z" agent="Mozilla/5.0 (X11; Linux x86_64) AppleWebKit/537.36 (KHTML, like Gecko) draw.io/22.0.3 Chrome/114.0.5735.289 Electron/25.8.4 Safari/537.36" etag="ewiNZPFTfCfxmycUKvn-" version="22.0.3" type="device">
  <diagram name="Page-1" id="DE6k1GMJ3X28mMCRHsG7">
    <mxGraphModel dx="1364" dy="843" grid="1" gridSize="10" guides="1" tooltips="1" connect="1" arrows="1" fold="1" page="1" pageScale="1" pageWidth="1169" pageHeight="827" math="0" shadow="0">
      <root>
        <mxCell id="0" />
        <mxCell id="1" parent="0" />
        <mxCell id="qbWhF2JWXlbCQJq_gMvK-1" value="" style="shape=umlLifeline;perimeter=lifelinePerimeter;whiteSpace=wrap;html=1;container=1;dropTarget=0;collapsible=0;recursiveResize=0;outlineConnect=0;portConstraint=eastwest;newEdgeStyle={&quot;curved&quot;:0,&quot;rounded&quot;:0};participant=umlActor;" parent="1" vertex="1">
          <mxGeometry x="190" y="50" width="20" height="420" as="geometry" />
        </mxCell>
        <mxCell id="qbWhF2JWXlbCQJq_gMvK-2" value=":Systeme" style="shape=umlLifeline;perimeter=lifelinePerimeter;whiteSpace=wrap;html=1;container=1;dropTarget=0;collapsible=0;recursiveResize=0;outlineConnect=0;portConstraint=eastwest;newEdgeStyle={&quot;curved&quot;:0,&quot;rounded&quot;:0};" parent="1" vertex="1">
          <mxGeometry x="670" y="50" width="100" height="420" as="geometry" />
        </mxCell>
        <mxCell id="qbWhF2JWXlbCQJq_gMvK-16" value="comfirmation du panier" style="html=1;verticalAlign=bottom;endArrow=block;curved=0;rounded=0;" parent="1" edge="1">
          <mxGeometry width="80" relative="1" as="geometry">
            <mxPoint x="200" y="156" as="sourcePoint" />
            <mxPoint x="719.5" y="156" as="targetPoint" />
          </mxGeometry>
        </mxCell>
        <mxCell id="qbWhF2JWXlbCQJq_gMvK-20" value="demande de payement" style="html=1;verticalAlign=bottom;endArrow=block;curved=0;rounded=0;" parent="1" edge="1">
          <mxGeometry width="80" relative="1" as="geometry">
            <mxPoint x="719.5" y="220" as="sourcePoint" />
            <mxPoint x="199.5" y="220" as="targetPoint" />
          </mxGeometry>
        </mxCell>
        <mxCell id="qbWhF2JWXlbCQJq_gMvK-21" value="comfirmation du paiement" style="html=1;verticalAlign=bottom;endArrow=block;curved=0;rounded=0;" parent="1" edge="1">
          <mxGeometry width="80" relative="1" as="geometry">
            <mxPoint x="200.5" y="279" as="sourcePoint" />
            <mxPoint x="720.5" y="279" as="targetPoint" />
          </mxGeometry>
        </mxCell>
        <mxCell id="qbWhF2JWXlbCQJq_gMvK-23" value="envoie d&#39;un mail de confirmation de la commande" style="html=1;verticalAlign=bottom;endArrow=open;dashed=1;endSize=8;curved=0;rounded=0;" parent="1" edge="1">
          <mxGeometry relative="1" as="geometry">
            <mxPoint x="719.5" y="345" as="sourcePoint" />
            <mxPoint x="199.5" y="345" as="targetPoint" />
          </mxGeometry>
        </mxCell>
        <mxCell id="qbWhF2JWXlbCQJq_gMvK-24" value="retour a la page d&#39;acceuil" style="html=1;verticalAlign=bottom;endArrow=block;curved=0;rounded=0;" parent="1" edge="1">
          <mxGeometry width="80" relative="1" as="geometry">
            <mxPoint x="719.5" y="413" as="sourcePoint" />
            <mxPoint x="199.5" y="413" as="targetPoint" />
          </mxGeometry>
        </mxCell>
      </root>
    </mxGraphModel>
  </diagram>
</mxfile>
